# Blender v2.66 (sub 1) OBJ File: 'spaceship.blend'
# www.blender.org
mtllib spaceship2.mtl
o Cube.001
v 0.204546 0.141218 -0.204545
v 0.155516 0.204546 -0.204545
v 0.155516 0.267975 0.204546
v 0.204546 0.194830 0.204546
v 0.000000 -0.082289 0.204545
v 0.204546 0.031602 0.204546
v 0.233407 -0.061671 0.763466
v 0.000000 -0.132157 0.577718
v 0.214016 0.275850 0.835098
v 0.209536 0.201497 0.577719
v 0.000000 0.240771 -0.204545
v 0.086482 0.138867 -1.097816
v 0.000000 0.138867 -1.097816
v 0.204546 0.041400 -0.204546
v 0.000000 -0.057150 -0.204546
v 0.000000 0.021069 -1.380601
v 0.086482 0.042260 -1.241264
v 0.086482 0.107858 -1.143880
v 0.204546 0.073187 -0.277671
v 0.270000 0.079322 0.616787
v 0.437114 0.073984 0.204546
v 0.909635 0.142384 -0.186361
v 0.520343 0.107447 0.716094
v 0.520343 0.201497 0.627362
v 0.204546 0.073187 -0.204546
v 0.609791 0.102968 -0.297675
v 0.609791 0.141218 -0.204545
v 0.867969 0.194830 -0.053202
v 0.000000 -0.111028 0.916773
v 0.207368 -0.037780 0.916773
v 0.061711 -0.071203 1.113607
v 0.000000 -0.077380 1.113607
v 0.204546 0.141218 -0.204545
v 0.658534 0.328112 -0.881141
v 0.658166 0.364992 -0.826855
v 0.207368 0.239154 0.938271
v 1.086035 0.174395 0.138621
v 1.127701 0.113400 0.005441
v 0.000000 0.308372 0.797319
v 0.000000 0.291763 0.938271
v 1.198780 0.156702 0.283807
v 1.267610 0.073227 0.181227
v 0.872816 0.027715 0.951566
v 0.707564 0.079302 0.826098
v 0.707564 0.173290 0.800612
v 0.872816 0.127799 0.926080
v 1.278041 0.064472 0.866291
v 1.278041 0.097629 0.577718
v 1.369903 0.026222 0.444539
v 1.328237 -0.059257 0.866291
v 1.211135 0.020638 1.168201
v 1.272682 -0.078935 1.260676
v 1.098001 -0.092660 1.410362
v 1.163701 -0.147397 1.676108
v 0.000000 0.311911 0.204546
v 0.155516 0.267975 0.204546
v 0.600423 0.318233 -1.346994
v 0.600259 0.334883 -1.325087
v 0.633641 0.392892 -0.884864
v 0.089039 0.039804 1.207514
v 0.000000 0.054449 1.207514
v 0.116346 0.150811 1.155212
v 0.000000 0.186299 1.155212
v -0.204546 0.141218 -0.204545
v -0.204546 0.194830 0.204546
v -0.155516 0.267975 0.204546
v -0.155516 0.204546 -0.204545
v -0.233407 -0.061671 0.763466
v -0.204546 0.031602 0.204546
v -0.209536 0.201497 0.577719
v -0.214016 0.275850 0.835098
v -0.086482 0.138867 -1.097816
v -0.204546 0.041400 -0.204546
v -0.086482 0.042260 -1.241264
v -0.204546 0.073187 -0.277671
v -0.086482 0.107858 -1.143880
v -0.270000 0.079322 0.616787
v -0.520343 0.107447 0.716094
v -0.909635 0.142384 -0.186361
v -0.437114 0.073984 0.204546
v -0.520343 0.201497 0.627362
v -0.204546 0.073187 -0.204546
v -0.609791 0.102968 -0.297675
v -0.867969 0.194830 -0.053202
v -0.609791 0.141218 -0.204545
v -0.061711 -0.071203 1.113607
v -0.207368 -0.037780 0.916773
v -0.204546 0.141218 -0.204545
v -0.658166 0.364992 -0.826855
v -0.658534 0.328112 -0.881141
v -0.207368 0.239154 0.938271
v -1.127701 0.113400 0.005441
v -1.086035 0.174395 0.138621
v -1.267610 0.073227 0.181227
v -1.198780 0.156702 0.283807
v -0.707564 0.079302 0.826098
v -0.872816 0.027715 0.951566
v -0.707564 0.173290 0.800612
v -0.872816 0.127799 0.926080
v -1.278041 0.097629 0.577718
v -1.278041 0.064472 0.866291
v -1.369903 0.026222 0.444539
v -1.328237 -0.059257 0.866291
v -1.272682 -0.078935 1.260676
v -1.211135 0.020638 1.168201
v -1.098001 -0.092660 1.410362
v -1.163701 -0.147397 1.676108
v -0.155516 0.267975 0.204546
v -0.600423 0.318233 -1.346994
v -0.600259 0.334883 -1.325087
v -0.633641 0.392892 -0.884864
v -0.089039 0.039804 1.207514
v -0.116346 0.150811 1.155212
vt 0.438264 0.632165
vt 0.453021 0.632399
vt 0.449628 0.714823
vt 0.367793 0.378190
vt 0.333223 0.406948
vt 0.321611 0.317603
vt 0.466326 0.715015
vt 0.466391 0.842135
vt 0.689341 0.237732
vt 0.658114 0.236300
vt 0.681483 0.056132
vt 0.384807 0.471966
vt 0.419050 0.443687
vt 0.534594 0.621438
vt 0.194931 0.660645
vt 0.208437 0.679849
vt 0.195155 0.869513
vt 0.269729 0.351293
vt 0.295774 0.436924
vt 0.217218 0.367308
vt 0.261579 0.768419
vt 0.241196 0.748122
vt 0.253186 0.703449
vt 0.384130 0.472958
vt 0.959897 0.891669
vt 0.947924 0.877166
vt 0.991807 0.834901
vt 0.278235 0.264628
vt 0.244087 0.292465
vt 0.242768 0.242339
vt 0.214881 0.868722
vt 0.201436 0.869261
vt 0.201027 0.854448
vt 0.234852 0.736599
vt 0.459631 0.863265
vt 0.404836 0.860100
vt 0.968240 0.819653
vt 1.000000 0.776674
vt 0.831959 0.867134
vt 0.783673 0.808820
vt 0.331603 0.538549
vt 0.884895 0.930697
vt 0.885396 0.930486
vt 0.259914 0.319176
vt 0.635379 0.446221
vt 0.678860 0.440583
vt 0.677581 0.469195
vt 0.976497 0.761399
vt 0.998160 0.731240
vt 0.168229 0.542913
vt 0.174468 0.372094
vt 0.269549 0.559116
vt 0.211615 0.554736
vt 0.825097 0.760255
vt 0.974657 0.724192
vt 0.268847 0.673422
vt 0.250572 0.666565
vt 0.241165 0.632165
vt 0.839631 0.667970
vt 0.277164 0.709994
vt 0.909560 0.624084
vt 0.314999 0.686054
vt 0.337333 0.710724
vt 0.313325 0.773449
vt 0.133713 0.370994
vt 0.119820 0.512394
vt 0.339799 0.769592
vt 0.343714 0.831723
vt 0.320785 0.632165
vt 0.343451 0.650233
vt 0.809027 0.564228
vt 0.783792 0.514704
vt 0.859183 0.586395
vt 0.074795 0.437878
vt 0.034015 0.368033
vt 0.827910 0.344159
vt 0.845139 0.355803
vt 0.828036 0.514704
vt 0.424573 0.798168
vt 0.451412 0.790352
vt 0.684735 0.320441
vt 0.653566 0.319031
vt 0.000052 0.837986
vt 0.000000 0.660457
vt 0.114707 0.727314
vt 0.682174 0.046883
vt 0.578525 0.000062
vt 0.860997 0.514704
vt 0.845139 0.513609
vt 0.850668 0.370818
vt 0.578215 0.004459
vt 0.224222 0.234315
vt 0.237901 0.223804
vt 0.252598 0.234543
vt 0.243893 0.791898
vt 0.241205 0.773910
vt 0.266111 0.768419
vt 0.635975 0.467298
vt 0.652913 0.512411
vt 0.868606 0.000000
vt 0.852517 0.080965
vt 0.838446 0.082056
vt 0.333270 0.261663
vt 0.846305 0.155058
vt 0.698998 0.056984
vt 0.716512 0.057837
vt 0.449095 0.421563
vt 0.561772 0.600129
vt 0.566277 0.632165
vt 0.194931 0.671259
vt 0.192508 0.873946
vt 0.186124 0.859421
vt 0.354592 0.284759
vt 0.380763 0.239086
vt 0.555447 0.334967
vt 0.359756 0.632165
vt 0.389738 0.688506
vt 0.343831 0.655563
vt 0.397511 0.356545
vt 0.433156 0.329215
vt 0.745042 0.554761
vt 0.775836 0.611480
vt 0.751478 0.625918
vt 0.309262 0.241367
vt 0.172320 0.874183
vt 0.186079 0.874022
vt 0.119909 0.734024
vt 0.127393 0.723087
vt 0.834092 0.226593
vt 0.827910 0.205422
vt 0.896734 0.193819
vt 0.783673 0.670064
vt 0.759279 0.684444
vt 0.615710 0.576859
vt 0.607499 0.683536
vt 0.448418 0.422556
vt 0.670818 0.515169
vt 0.732453 0.568732
vt 0.670536 0.514704
vt 0.722075 0.450441
vt 0.719975 0.471387
vt 0.781753 0.715856
vt 0.757199 0.721787
vt 0.396856 0.197739
vt 0.408037 0.155920
vt 0.566637 0.230556
vt 0.395499 0.735252
vt 0.398637 0.776253
vt 0.378605 0.745028
vt 0.621787 0.776683
vt 0.613098 0.735165
vt 0.369467 0.702889
vt 0.730326 0.777674
vt 0.308877 0.632165
vt 0.313325 0.719374
vt 0.289097 0.717766
vt 0.492254 0.110584
vt 0.305599 0.799841
vt 0.762430 0.770056
vt 0.592469 0.882220
vt 0.641607 0.859519
vt 0.639080 0.882538
vt 0.365750 0.000000
vt 0.360028 0.868283
vt 0.343714 0.903389
vt 0.691947 0.822003
vt 0.869612 0.161817
vt 0.716562 0.322097
vt 0.721110 0.239366
vt 0.466812 0.632165
vt 0.564816 0.745759
vt 0.566637 0.840572
vt 0.717203 0.048588
vt 0.821746 0.011901
vt 0.821369 0.016295
vt 0.823313 0.105678
vt 0.731515 0.240026
vt 0.252204 0.212377
vt 0.262165 0.227131
vt 0.272642 0.792179
vt 0.241165 0.809431
vt 0.700040 0.514705
vt 0.676211 0.513458
vt 0.227244 0.725893
vt 0.225344 0.632165
vt 0.890309 0.225090
vt 0.850455 0.274090
vt 0.702696 0.000000
vt 0.446720 0.908542
vt 0.114707 0.723399
vt 0.398637 0.828873
vt 0.260471 0.639473
vt 0.830981 0.708951
vt 0.947777 0.668553
vt 0.324288 0.853267
vt 0.855777 0.564322
vt 0.000000 0.286753
vt 0.836232 0.458705
vt 0.114684 0.632165
vt 0.860585 0.367192
vt 0.566637 0.093183
vt 0.856518 0.001189
vt 0.181606 0.690856
vt 0.566637 0.634509
vt 0.523258 0.388288
vt 0.566050 0.276854
vt 0.380741 0.786541
vt 0.291434 0.659912
vt 0.550375 0.174833
vt 0.289210 0.781123
vt 0.567264 0.931970
vt 0.434012 0.054430
vt 0.466391 0.809557
vt 0.827910 0.117753
vt 0.266058 0.814837
vt 0.228765 0.636474
vt 0.241165 0.724861
vt 0.896626 0.270061
vt 0.872601 0.286641
vt 0.683635 0.027330
vt 0.426113 0.919898
vt 0.405233 0.901628
vt 0.718664 0.029035
vt 0.127266 0.636586
vt 0.130644 0.632165
vn 0.225196 0.793237 -0.565691
vn 0.432142 0.900143 0.054506
vn 0.474013 0.876644 -0.082400
vn 0.013276 -0.994537 -0.103427
vn 0.374554 -0.925504 -0.055696
vn 0.015961 -0.996551 -0.081027
vn 0.827631 0.554765 -0.084811
vn 0.711417 0.689505 0.135685
vn 0.002869 0.991607 -0.129215
vn -0.188665 0.946532 -0.261605
vn 0.844600 -0.534440 -0.031281
vn 0.003571 -0.998474 -0.054903
vn 0.882260 -0.227912 -0.411847
vn -0.557024 -0.048494 -0.829066
vn 0.804346 -0.446730 0.391675
vn 0.150243 -0.988586 0.010071
vn -0.303659 -0.408521 0.860714
vn 0.818628 0.554369 0.149846
vn 0.882321 -0.355083 -0.308817
vn 0.214545 -0.175756 -0.960753
vn 0.006470 0.933073 -0.359600
vn 0.501816 -0.081423 -0.861110
vn -0.025910 -0.993255 0.112888
vn 0.803766 -0.523209 0.283120
vn 0.431867 -0.764061 0.479202
vn 0.872097 0.087985 0.481338
vn 0.911069 -0.408582 0.054445
vn 0.844508 0.351848 0.403699
vn 0.771508 0.525376 0.358745
vn 0.124454 0.974700 -0.185583
vn 0.646321 -0.207617 -0.734245
vn 0.774285 -0.625202 0.097842
vn -0.008393 0.997955 0.063051
vn -0.019837 0.955412 0.294534
vn 0.232734 0.969726 -0.073672
vn 0.763573 -0.315317 -0.563463
vn -0.581195 -0.589038 0.561418
vn -0.068056 0.933195 0.352794
vn 0.403485 0.912534 -0.066500
vn -0.067476 0.949614 0.306040
vn -0.688437 -0.677053 0.259987
vn -0.266549 0.810572 0.521439
vn 0.625172 0.755181 0.197058
vn 0.913877 -0.352886 -0.200598
vn 0.564409 0.816767 0.119510
vn 0.769616 -0.638478 -0.002350
vn -0.017243 0.993988 0.107883
vn 0.262825 0.953978 0.144230
vn 0.015320 -0.237403 0.971282
vn 0.883450 -0.442732 0.153203
vn 0.009247 0.996124 -0.087130
vn 0.253426 0.963988 -0.080477
vn 0.885769 -0.463881 -0.013550
vn 0.385968 -0.091037 -0.917997
vn 0.383038 0.843196 -0.377178
vn 0.580187 -0.207099 0.787683
vn 0.008789 -0.064333 0.997864
vn -0.035951 -0.882382 0.469131
vn 0.617023 0.386853 0.685263
vn -0.331309 0.735038 -0.591510
vn -0.469588 0.880795 -0.060549
vn -0.838557 0.542283 -0.052248
vn -0.751122 -0.641865 0.154149
vn -0.780175 0.595294 0.192114
vn -0.020417 0.963042 -0.268502
vn 0.230201 0.924558 -0.303598
vn -0.777856 -0.604144 -0.172918
vn -0.876675 -0.253883 -0.408582
vn -0.008728 -0.188116 -0.982086
vn -0.926084 -0.370617 0.070467
vn -0.619037 0.117283 0.776513
vn 0.518174 -0.431593 0.738365
vn -0.429151 -0.082980 -0.899380
vn 0.148015 0.923063 0.354930
vn -0.335856 -0.936918 -0.096744
vn -0.225654 -0.974181 0.004028
vn -0.078494 -0.212104 -0.974059
vn -0.113620 0.975616 -0.187750
vn -0.789483 -0.559313 0.252693
vn -0.880642 0.108402 0.461165
vn -0.875790 -0.200323 -0.439100
vn -0.832118 0.370586 0.412519
vn -0.924284 -0.381024 -0.021668
vn -0.752892 0.558611 0.347942
vn -0.705069 0.694968 0.140812
vn -0.697317 -0.023896 -0.716330
vn -0.265969 0.956145 -0.122562
vn 0.026521 0.923063 -0.383679
vn -0.806055 -0.319254 -0.498337
vn -0.439070 0.897458 -0.042055
vn 0.422101 0.467208 0.776849
vn 0.690115 -0.670827 0.271432
vn 0.237434 0.792718 0.561418
vn 0.275918 0.808924 0.519120
vn -0.462355 0.882595 0.084872
vn -0.932127 -0.231025 -0.278817
vn -0.760338 -0.649495 -0.005707
vn -0.609577 0.774468 0.169103
vn -0.926267 0.064333 0.371258
vn -0.445174 0.882870 0.149358
vn -0.366558 0.860958 0.352611
vn -0.061617 -0.192145 0.979400
vn -0.270730 0.958251 -0.091769
vn -0.440443 0.896756 0.042360
vn -0.393506 -0.072726 -0.916410
vn -0.576434 0.579669 -0.575915
vn -0.387951 0.836787 -0.386273
vn -0.363170 0.931089 -0.033418
vn -0.452559 -0.189367 0.871364
vn -0.327525 -0.861385 0.388195
vn 0.010132 0.712638 0.701407
vn -0.601611 0.435896 0.669332
vn 0.286905 0.957030 -0.041444
usemtl Material.001
s 1
f 1/1/1 2/2/2 4/3/3
f 5/4/4 6/5/5 8/6/6
f 4/3/3 3/7/7 9/8/8
f 11/9/9 2/10/2 12/11/10
f 14/12/11 6/5/5 15/13/12
f 14/12/11 15/13/12 17/14/13
f 17/15/13 18/16/14 14/17/11
f 20/18/15 21/19/16 23/20/17
f 10/21/18 20/22/15 23/23/17
f 14/12/11 25/24/19 6/5/5
f 6/5/5 21/19/16 20/18/15
f 26/25/20 27/26/21 22/27/22
f 29/28/23 30/29/24 31/30/25
f 1/31/1 25/32/19 33/31/26
f 33/31/26 19/33/27 35/34/28
f 36/35/29 30/36/24 9/8/8
f 22/27/22 28/37/30 38/38/31
f 4/39/3 10/40/18 28/37/30
f 21/19/16 25/24/19 26/41/20
f 25/42/19 1/43/1 26/25/20
f 1/43/1 4/39/3 28/37/30
f 8/6/6 7/44/32 29/28/23
f 9/45/8 39/46/33 40/47/34
f 38/38/31 37/48/35 42/49/36
f 23/20/17 42/50/36 44/51/37
f 23/20/17 22/52/22 38/53/31
f 28/37/30 24/54/38 41/55/39
f 45/56/40 44/57/37 43/58/41
f 41/55/39 24/54/38 46/59/42
f 24/60/38 23/23/17 44/57/37
f 41/55/39 46/59/42 47/61/43
f 49/62/44 48/63/45 50/64/46
f 43/65/41 42/50/36 49/66/44
f 50/64/46 47/67/43 51/68/47
f 42/69/36 41/70/39 49/62/44
f 53/71/48 54/72/49 51/73/47
f 43/65/41 50/74/46 52/75/50
f 46/76/42 43/77/41 54/78/49
f 47/61/43 46/59/42 53/71/48
f 20/79/15 10/80/18 9/8/8
f 55/81/51 39/46/33 56/82/52
f 11/9/9 55/81/51 56/82/52
f 19/83/27 18/84/14 34/85/53
f 18/86/14 12/11/10 57/87/54
f 2/88/2 33/89/26 35/90/28
f 12/11/10 2/10/2 58/91/55
f 19/33/27 25/32/19 14/17/11
f 60/92/56 61/93/57 32/94/58
f 61/95/57 60/96/56 62/97/59
f 36/98/29 40/47/34 62/99/59
f 64/100/60 65/101/61 66/102/62
f 5/4/4 8/6/6 68/103/63
f 65/101/61 70/104/64 66/102/62
f 11/9/9 13/105/65 72/106/66
f 73/107/67 15/13/12 5/4/4
f 73/107/67 74/108/68 16/109/69
f 74/110/68 73/111/67 75/112/70
f 77/113/71 78/114/72 79/115/73
f 70/116/64 81/117/74 77/118/71
f 73/107/67 69/119/75 80/120/76
f 69/119/75 68/103/63 80/120/76
f 83/121/77 79/122/73 84/123/78
f 29/28/23 32/94/58 87/124/79
f 64/125/60 88/125/80 82/126/81
f 88/125/80 89/127/82 90/128/83
f 91/129/84 71/130/85 68/131/63
f 79/122/73 92/132/86 93/133/87
f 65/134/61 84/123/78 81/135/74
f 80/120/76 79/115/73 82/136/81
f 82/137/81 83/121/77 85/138/88
f 64/139/60 85/138/88 84/123/78
f 8/6/6 29/28/23 87/124/79
f 71/140/85 91/141/84 39/46/33
f 92/132/86 94/142/89 95/143/90
f 78/114/72 96/144/91 97/145/92
f 78/114/72 94/146/89 79/115/73
f 84/123/78 93/133/87 81/135/74
f 98/147/93 99/148/94 96/149/91
f 95/143/90 99/150/94 98/151/93
f 81/117/74 98/147/93 78/152/72
f 95/143/90 100/153/95 99/150/94
f 102/154/96 103/155/97 101/156/98
f 97/145/92 103/157/97 94/146/89
f 103/155/97 104/158/99 101/156/98
f 94/142/89 102/159/96 100/153/95
f 106/160/100 105/161/101 104/162/99
f 97/145/92 107/163/102 103/157/97
f 99/148/94 106/164/100 107/165/102
f 101/166/98 105/161/101 99/150/94
f 77/167/71 68/131/63 70/104/64
f 55/81/51 108/168/103 71/140/85
f 11/9/9 67/169/104 55/81/51
f 75/170/70 90/171/83 109/172/105
f 76/173/106 109/174/105 110/175/107
f 67/169/104 111/176/108 88/177/80
f 72/106/66 110/175/107 111/176/108
f 75/112/70 73/111/67 82/126/81
f 112/178/109 86/179/110 32/94/58
f 61/95/57 63/180/111 112/181/109
f 91/141/84 113/182/112 63/183/111
f 34/184/53 57/185/54 35/34/28
f 91/129/84 87/186/79 113/187/112
f 13/105/65 12/11/10 16/188/69
f 36/35/29 62/189/59 30/36/24
f 76/173/106 72/106/66 13/105/65
f 89/127/82 111/190/108 90/128/83
f 2/2/2 3/7/7 4/3/3
f 6/5/5 7/44/32 8/6/6
f 10/80/18 4/3/3 9/8/8
f 13/105/65 11/9/9 12/11/10
f 6/5/5 5/4/4 15/13/12
f 15/13/12 16/109/69 17/14/13
f 18/16/14 19/33/27 14/17/11
f 21/19/16 22/52/22 23/20/17
f 24/60/38 10/21/18 23/23/17
f 25/24/19 21/19/16 6/5/5
f 7/44/32 6/5/5 20/18/15
f 27/26/21 28/37/30 22/27/22
f 32/94/58 29/28/23 31/30/25
f 25/32/19 19/33/27 33/31/26
f 19/33/27 34/184/53 35/34/28
f 30/36/24 7/191/32 9/8/8
f 28/37/30 37/48/35 38/38/31
f 10/40/18 24/54/38 28/37/30
f 22/52/22 21/19/16 26/41/20
f 1/43/1 27/26/21 26/25/20
f 27/26/21 1/43/1 28/37/30
f 7/44/32 30/29/24 29/28/23
f 36/98/29 9/45/8 40/47/34
f 37/48/35 41/55/39 42/49/36
f 42/50/36 43/65/41 44/51/37
f 42/50/36 23/20/17 38/53/31
f 37/48/35 28/37/30 41/55/39
f 46/192/42 45/56/40 43/58/41
f 24/54/38 45/193/40 46/59/42
f 45/56/40 24/60/38 44/57/37
f 48/194/45 41/55/39 47/61/43
f 48/63/45 47/67/43 50/64/46
f 50/74/46 43/65/41 49/66/44
f 52/195/50 50/64/46 51/68/47
f 41/70/39 48/63/45 49/62/44
f 54/72/49 52/196/50 51/73/47
f 54/197/49 43/65/41 52/75/50
f 53/198/48 46/76/42 54/78/49
f 51/73/47 47/61/43 53/71/48
f 7/191/32 20/79/15 9/8/8
f 39/46/33 9/45/8 56/82/52
f 2/10/2 11/9/9 56/82/52
f 18/84/14 57/199/54 34/85/53
f 12/11/10 58/91/55 57/87/54
f 59/200/113 2/88/2 35/90/28
f 2/10/2 59/201/113 58/91/55
f 31/30/25 60/92/56 32/94/58
f 63/180/111 61/95/57 62/97/59
f 40/47/34 63/183/111 62/99/59
f 67/202/104 64/100/60 66/102/62
f 69/119/75 5/4/4 68/103/63
f 70/104/64 71/130/85 66/102/62
f 67/169/104 11/9/9 72/106/66
f 69/119/75 73/107/67 5/4/4
f 15/13/12 73/107/67 16/109/69
f 76/203/106 74/110/68 75/112/70
f 80/120/76 77/113/71 79/115/73
f 81/117/74 78/152/72 77/118/71
f 82/136/81 73/107/67 80/120/76
f 68/103/63 77/113/71 80/120/76
f 85/138/88 83/121/77 84/123/78
f 32/94/58 86/179/110 87/124/79
f 88/125/80 75/112/70 82/126/81
f 75/112/70 88/125/80 90/128/83
f 87/186/79 91/129/84 68/131/63
f 84/123/78 79/122/73 93/133/87
f 70/204/64 65/134/61 81/135/74
f 79/115/73 83/205/77 82/136/81
f 64/139/60 82/137/81 85/138/88
f 65/134/61 64/139/60 84/123/78
f 68/103/63 8/6/6 87/124/79
f 91/141/84 40/47/34 39/46/33
f 93/133/87 92/132/86 95/143/90
f 94/146/89 78/114/72 97/145/92
f 94/146/89 92/206/86 79/115/73
f 93/133/87 95/143/90 81/135/74
f 99/148/94 97/207/92 96/149/91
f 81/135/74 95/143/90 98/151/93
f 98/147/93 96/149/91 78/152/72
f 100/153/95 101/166/98 99/150/94
f 100/208/95 102/154/96 101/156/98
f 103/157/97 102/209/96 94/146/89
f 104/158/99 105/210/101 101/156/98
f 95/143/90 94/142/89 100/153/95
f 107/211/102 106/160/100 104/162/99
f 107/163/102 104/212/99 103/157/97
f 97/207/92 99/148/94 107/165/102
f 105/161/101 106/160/100 99/150/94
f 68/131/63 71/130/85 70/104/64
f 39/46/33 55/81/51 71/140/85
f 67/169/104 108/168/103 55/81/51
f 76/213/106 75/170/70 109/172/105
f 72/106/66 76/173/106 110/175/107
f 111/176/108 89/214/82 88/177/80
f 67/169/104 72/106/66 111/176/108
f 61/93/57 112/178/109 32/94/58
f 63/180/111 113/215/112 112/181/109
f 40/47/34 91/141/84 63/183/111
f 57/185/54 58/216/55 59/217/113
f 35/34/28 57/185/54 59/217/113
f 87/186/79 86/218/110 112/219/109
f 113/187/112 87/186/79 112/219/109
f 12/11/10 18/86/14 17/220/13
f 16/188/69 12/11/10 17/220/13
f 62/189/59 60/221/56 31/222/25
f 30/36/24 62/189/59 31/222/25
f 74/223/68 76/173/106 16/188/69
f 76/173/106 13/105/65 16/188/69
f 111/190/108 110/224/107 109/225/105
f 90/128/83 111/190/108 109/225/105
f 3 56
f 66 108
